<?xml version="1.0" standalone="no"?>
<!DOCTYPE svg PUBLIC "-//W3C//DTD SVG 20010904//EN"
 "http://www.w3.org/TR/2001/REC-SVG-20010904/DTD/svg10.dtd">
<svg version="1.0" xmlns="http://www.w3.org/2000/svg"
 width="540.000000pt" height="540.000000pt" viewBox="0 0 540.000000 540.000000"
 preserveAspectRatio="xMidYMid meet">

<g transform="translate(0.000000,540.000000) scale(0.100000,-0.100000)"
fill="#000000" stroke="none">
<path d="M0 2700 l0 -2700 2700 0 2700 0 0 2700 0 2700 -2700 0 -2700 0 0
-2700z m2834 2160 c51 -19 24 -25 -106 -22 l-133 3 -44 -65 c-24 -35 -54 -73
-66 -84 -13 -11 -31 -38 -41 -59 -10 -21 -35 -55 -56 -75 -21 -20 -38 -41 -38
-48 0 -6 -9 -20 -20 -32 -11 -12 -20 -28 -20 -35 0 -9 -17 -13 -60 -13 l-60 0
0 -80 0 -80 -65 0 -65 0 0 88 0 88 147 155 c81 85 173 180 204 212 l56 57 171
0 c94 0 182 -4 196 -10z m165 -156 c17 -14 31 -30 31 -36 0 -5 -14 2 -31 16
-23 19 -42 26 -74 26 -24 0 -47 5 -50 10 -4 6 13 10 44 10 39 0 56 -6 80 -26z
m116 -144 c15 -6 7 -9 -30 -9 -37 0 -45 3 -30 9 11 5 25 9 30 9 6 0 19 -4 30
-9z m95 -106 c15 -38 13 -391 -2 -400 -8 -5 -67 49 -166 152 -167 173 -244
267 -115 141 78 -77 80 -78 126 -76 26 2 50 5 54 8 14 11 53 125 56 164 1 9 5
17 10 17 4 0 5 5 2 10 -3 6 1 10 10 10 8 0 20 -12 25 -26z m-1422 -152 c3 -16
-2 -22 -16 -22 -24 0 -35 23 -19 39 16 16 31 8 35 -17z m762 8 l167 0 24 -27
c13 -15 17 -22 9 -16 -22 16 -64 27 -56 15 3 -6 -1 -8 -12 -6 -9 3 -28 1 -42
-5 -24 -9 -23 -10 12 -10 20 -1 44 -4 54 -8 13 -5 15 -3 9 8 -9 16 45 -40 60
-63 6 -8 25 -34 43 -58 l32 -43 0 -137 c0 -134 -1 -138 -27 -172 -26 -32 -34
-36 -93 -42 -36 -3 -141 -6 -235 -7 -93 -1 -182 -4 -197 -8 l-28 -6 45 -45
c24 -25 44 -48 45 -52 1 -22 -32 -1 -92 59 l-68 67 0 201 0 200 81 88 c58 62
85 85 92 78 7 -7 73 -11 177 -11z m-908 -65 c0 -5 -5 -11 -11 -13 -6 -2 -11 4
-11 13 0 9 5 15 11 13 6 -2 11 -8 11 -13z m513 -67 c5 -5 4 -8 -3 -8 -15 0
-82 59 -82 73 0 6 17 -5 38 -24 20 -18 41 -37 47 -41z m1638 -16 l37 -37 -40
-38 -40 -38 -40 33 c-22 18 -40 36 -40 40 0 9 68 78 78 78 4 0 24 -17 45 -38z
m-1873 -388 l34 -35 -35 -33 c-20 -20 -40 -30 -49 -27 -34 13 -70 44 -70 59 0
20 49 69 70 71 8 0 31 -15 50 -35z m-590 -99 l34 -35 -29 -30 c-16 -16 -37
-30 -48 -30 -23 0 -77 37 -77 53 0 14 61 77 75 77 6 0 26 -16 45 -35z m2757 3
c18 -18 33 -37 32 -42 0 -6 -15 -23 -33 -38 -33 -27 -33 -27 -66 -9 -56 30
-60 45 -20 86 19 19 38 35 44 35 6 0 25 -14 43 -32z m-1067 -78 l0 -70 -55 0
c-50 0 -55 2 -55 22 0 21 84 118 102 118 4 0 8 -31 8 -70z m-504 -86 c-3 -9
-6 -33 -6 -55 0 -37 -2 -39 -30 -39 -29 0 -34 -7 -31 -42 1 -10 -3 -18 -8 -18
-19 0 -12 -16 14 -30 14 -7 25 -17 25 -22 0 -15 -17 -8 -44 18 -22 23 -26 35
-26 87 0 52 4 65 27 89 30 32 90 41 79 12z m594 -58 c0 -28 -15 -36 -53 -29
-30 6 -27 23 4 23 10 0 19 5 19 11 0 5 5 7 10 4 6 -3 10 -1 10 4 0 6 2 11 5
11 3 0 5 -11 5 -24z m757 -48 c18 -18 33 -36 33 -41 0 -6 -17 -24 -37 -42
l-38 -33 -37 27 c-21 14 -38 33 -38 41 0 16 59 80 74 80 6 0 25 -14 43 -32z
m-1207 -48 l0 -60 -44 0 c-24 0 -51 -3 -60 -6 -14 -5 -16 4 -16 60 l0 66 60 0
60 0 0 -60z m-1307 -272 c98 -100 176 -188 175 -195 -2 -6 -93 -106 -203 -220
-110 -115 -219 -230 -243 -256 -23 -26 -45 -47 -47 -47 -3 0 -5 193 -5 429 l0
430 26 20 c18 14 42 21 73 21 l46 1 178 -183z m330 124 c58 -57 68 -72 60
-100 -5 -20 -12 -22 -131 -24 l-126 -3 -9 -34 -8 -34 -120 119 -119 119 157 6
c233 9 238 8 296 -49z m634 36 c8 -7 13 -37 13 -84 l0 -74 -129 0 c-143 0
-131 4 -222 -81 l-34 -31 -132 136 c-73 75 -133 139 -133 141 0 9 59 10 335 7
185 -2 294 -7 302 -14z m2109 -20 c25 -23 59 -59 76 -81 33 -42 28 -57 -19
-57 -16 0 -23 -6 -23 -19 0 -19 -28 -49 -39 -42 -3 2 -14 -11 -23 -30 -9 -19
-17 -28 -18 -21 0 6 -5 12 -11 12 -6 0 -8 -7 -5 -16 3 -8 2 -12 -3 -9 -5 3
-12 -4 -16 -15 -4 -11 -10 -18 -15 -15 -5 3 -11 -4 -15 -15 -4 -11 -11 -17
-17 -14 -8 5 -9 1 -4 -12 4 -10 4 -15 0 -11 -4 4 -13 -1 -21 -11 -8 -9 -12
-11 -8 -4 13 26 -17 10 -51 -28 -20 -22 -44 -40 -53 -40 -13 0 -14 -2 -2 -9
12 -8 10 -11 -11 -16 -20 -5 -24 -11 -21 -33 3 -23 2 -24 -6 -7 -7 15 -10 16
-10 4 -1 -9 -19 -24 -41 -34 -22 -10 -40 -22 -40 -26 0 -5 -14 -24 -30 -43
-17 -19 -27 -36 -23 -38 5 -3 3 -3 -4 -2 -7 2 -23 -10 -37 -26 -17 -20 -37
-32 -66 -36 l-41 -7 23 -25 c27 -30 -37 19 -111 84 -25 23 -54 45 -64 51 -16
8 0 28 125 159 79 82 211 220 292 306 81 86 153 159 159 162 7 2 38 5 70 5 54
1 60 -1 103 -41z m105 32 c15 -9 19 -22 19 -68 l0 -56 -55 54 c-30 30 -55 58
-55 61 0 7 24 14 58 18 7 0 22 -4 33 -9z m-458 -132 c-71 -73 -190 -196 -263
-273 -73 -77 -136 -142 -142 -143 -16 -7 -53 7 -76 28 -47 44 -38 59 189 298
l212 222 105 0 106 0 -131 -132z m-1293 38 l0 -65 -127 -3 c-71 -2 -130 -2
-132 0 -3 1 1 8 7 14 7 7 12 36 12 65 l0 53 120 0 120 0 0 -64z m-1918 -123
l38 -37 -37 -33 c-41 -35 -58 -40 -70 -20 -4 8 -16 16 -26 20 -34 13 -32 38 6
74 20 18 40 33 44 33 4 0 24 -17 45 -37z m1072 -101 c128 -131 160 -179 71
-106 -45 37 -47 37 -83 24 -20 -7 -42 -19 -49 -26 -8 -7 -20 -11 -28 -8 -9 4
-15 0 -15 -9 0 -12 -13 -17 -52 -19 l-53 -3 -3 -42 c-2 -27 -7 -40 -15 -37 -7
2 -33 -7 -60 -20 -33 -17 -42 -26 -30 -28 14 -3 11 -8 -13 -21 -17 -9 -34 -13
-38 -10 -3 4 -6 1 -6 -5 0 -7 -9 -12 -20 -12 -11 0 -20 -4 -20 -10 0 -5 -6
-10 -14 -10 -17 0 -26 -30 -26 -95 -2 -106 -9 -122 -125 -243 -97 -101 -112
-113 -139 -110 -30 3 -31 5 -34 56 l-3 52 -58 0 c-61 0 -95 16 -90 43 2 9 42
56 89 104 103 106 502 523 585 611 41 44 66 62 80 60 11 -2 78 -63 149 -136z
m1280 -3 l126 -132 0 -79 c0 -70 -3 -83 -26 -114 -44 -57 -57 -50 -215 111
-78 80 -148 145 -156 145 -9 0 -13 14 -13 41 0 34 8 49 52 100 77 87 80 86
232 -72z m1336 123 c0 -4 -73 -79 -162 -167 -146 -144 -127 -118 50 66 35 36
70 76 78 88 15 21 34 28 34 13z m-1317 -526 c203 -208 337 -352 337 -364 0
-10 -26 -47 -58 -80 -56 -60 -59 -62 -108 -62 l-50 0 -320 327 c-376 384 -360
357 -263 458 100 104 68 123 462 -279z m958 241 c-10 -9 -11 -8 -5 6 3 10 9
15 12 12 3 -3 0 -11 -7 -18z m-650 -28 c23 -12 88 -80 89 -92 0 -5 17 -25 38
-45 86 -84 152 -162 152 -178 0 -14 -3 -15 -12 -6 -20 20 -35 14 -64 -26 -15
-21 -46 -46 -70 -57 -24 -10 -41 -22 -38 -26 5 -9 -72 -22 -86 -14 -6 4 -7 -1
-3 -11 6 -16 5 -16 -14 -3 -44 30 -243 230 -243 243 0 17 201 226 218 226 7 0
22 -5 33 -11z m554 -69 c-3 -5 -12 -10 -18 -10 -7 0 -6 4 3 10 19 12 23 12 15
0z m-155 -154 c0 -2 -8 -10 -17 -17 -16 -13 -17 -12 -4 4 13 16 21 21 21 13z
m-2208 -93 c26 -26 48 -52 48 -58 0 -17 -355 -366 -364 -358 -4 4 -6 1 -4 -7
2 -8 -3 -14 -10 -12 -8 1 -11 -1 -8 -6 9 -15 -27 -58 -196 -231 l-168 -171 0
141 0 142 87 91 c164 170 298 311 396 414 89 94 100 102 134 102 31 0 45 -8
85 -47z m143 37 c4 -6 -21 -10 -67 -10 -51 0 -68 3 -58 10 20 13 117 13 125 0z
m125 -205 c-118 -118 -221 -215 -228 -215 -7 0 -11 4 -8 9 3 4 -35 8 -83 7
-49 -1 -87 -4 -85 -8 2 -3 -5 -4 -16 -1 -11 3 -20 1 -20 -4 0 -6 -40 -50 -90
-99 l-90 -88 0 -150 0 -149 -72 69 c-40 38 -76 74 -81 81 -5 8 86 111 261 295
147 156 306 324 352 375 l85 91 145 1 145 1 -215 -215z m467 201 c11 -19 4
-198 -7 -191 -5 3 -39 3 -75 -1 l-65 -7 -1 -51 c0 -50 -15 -146 -18 -116 -1
13 -2 13 -11 0 -6 -10 -10 -11 -10 -2 0 15 -117 17 -122 1 -2 -6 -48 -12 -118
-15 l-115 -4 -83 -76 c-45 -42 -88 -74 -94 -72 -7 3 38 56 98 119 61 63 177
185 258 272 l148 157 104 0 c78 0 105 -3 111 -14z m1391 -199 c2 -73 6 -97 16
-97 8 0 44 -32 80 -71 l67 -70 -3 -97 c-4 -133 -13 -133 -139 -5 -53 54 -127
126 -163 160 -41 39 -66 71 -66 84 0 27 168 201 190 197 12 -3 16 -22 18 -101z
m-638 -154 c64 -65 126 -130 139 -145 l24 -27 -32 -26 c-29 -25 -31 -31 -31
-91 0 -76 -5 -80 -105 -83 -38 -2 -72 -4 -74 -6 -2 -3 -5 -21 -8 -42 -5 -55
-8 -60 -35 -58 -12 1 -30 -5 -38 -14 -8 -9 -24 -17 -35 -19 -11 -2 -38 -14
-60 -27 -22 -12 -44 -23 -50 -24 -5 0 -18 -8 -28 -16 -9 -8 -26 -17 -37 -18
-11 -2 -26 -11 -33 -21 -7 -9 -24 -18 -37 -20 -42 -4 -84 -18 -110 -36 -31
-21 -79 -31 -76 -16 2 6 1 8 -2 3 -2 -4 -20 -19 -40 -32 -59 -40 -192 -177
-192 -198 0 -10 5 -28 11 -40 10 -20 10 -21 -5 -7 -8 8 -18 29 -22 47 -6 30 3
41 197 242 111 116 207 212 212 214 12 4 0 27 -14 27 -5 0 -27 -18 -49 -40
-43 -44 -64 -49 -97 -21 -18 15 -23 30 -23 67 0 46 3 52 62 111 l62 63 60 0
c54 0 63 -3 93 -32 48 -47 52 -27 4 25 -69 74 -64 89 82 235 122 123 143 142
162 142 6 0 62 -53 125 -117z m-2014 5 c3 -4 -29 -43 -72 -88 -44 -45 -80 -86
-82 -91 -2 -5 -8 -9 -13 -9 -5 0 -9 37 -9 82 0 110 10 121 102 116 37 -2 70
-7 74 -10z m2618 -183 c105 -109 186 -201 184 -210 -2 -11 -12 -7 -38 16 l-35
31 -6 -28 c-5 -21 -7 -23 -9 -9 -1 11 -4 15 -7 8 -2 -7 -13 -13 -23 -13 -10 0
-22 -5 -25 -10 -4 -6 -11 -8 -16 -4 -6 3 -13 -3 -16 -15 -3 -12 -11 -21 -19
-21 -25 0 -64 -23 -70 -42 -3 -10 -11 -18 -17 -16 -22 4 -57 -13 -51 -24 5 -8
1 -9 -11 -4 -11 4 -22 2 -26 -5 -9 -16 -70 35 -203 170 l-99 99 128 136 c86
91 135 136 150 136 14 0 81 -63 209 -195z m-2054 99 c0 -8 -19 -13 -24 -6 -3
5 1 9 9 9 8 0 15 -2 15 -3z m2507 -451 c84 -87 153 -164 153 -172 0 -7 -50 35
-112 94 -62 59 -114 103 -116 96 -2 -6 -12 -11 -22 -11 -10 0 -20 -7 -24 -15
-3 -9 -18 -15 -40 -15 -19 0 -36 -4 -38 -8 -1 -5 -16 -12 -33 -16 -24 -5 -26
-4 -12 4 9 6 15 15 12 21 -9 13 -55 11 -55 -3 0 -6 -3 -8 -7 -5 -3 4 -12 -1
-20 -11 -9 -11 -12 -11 -7 -2 6 12 5 13 -7 2 -12 -11 -12 -14 1 -23 13 -9 13
-10 0 -7 -8 3 -22 -3 -32 -11 -10 -9 -23 -17 -28 -17 -6 -1 -14 -2 -20 -3 -5
0 -7 -8 -3 -16 3 -9 2 -15 -3 -13 -5 1 -21 -10 -36 -25 -20 -20 -28 -38 -28
-63 0 -48 -24 -40 -28 10 -3 36 3 44 153 202 107 111 164 164 179 164 14 0 69
-50 173 -157z m-3017 61 c28 -26 50 -53 50 -62 0 -21 -201 -222 -223 -222 -47
0 -57 17 -57 97 l0 75 62 67 c57 61 92 90 111 91 4 0 30 -21 57 -46z m1285
-12 c6 -4 23 -22 39 -39 l29 -32 -116 -118 c-63 -65 -124 -129 -136 -143 l-20
-25 -1 107 c0 118 -4 110 94 216 30 32 47 42 70 42 17 0 36 -4 41 -8z m1488
-79 c-7 -2 -19 -2 -25 0 -7 3 -2 5 12 5 14 0 19 -2 13 -5z m-3165 -34 c18 -17
29 -35 26 -41 -4 -6 -9 -6 -15 3 -6 10 -13 7 -29 -14 -26 -33 -62 -35 -91 -6
l-21 21 33 34 c40 42 55 42 97 3z m539 -22 c62 -63 71 -93 13 -47 l-40 32 0
-126 0 -126 -162 -2 c-163 -3 -163 -3 -166 -26 -2 -15 6 -34 20 -50 l23 -26
-25 16 c-17 10 -27 28 -31 53 -6 38 -5 39 145 197 83 87 155 158 160 158 5 0
33 -24 63 -53z m1703 30 c0 -2 -15 -16 -32 -33 l-33 -29 29 33 c28 30 36 37
36 29z m-1197 -296 c37 -40 35 -49 -13 -66 -3 -1 -13 -5 -23 -10 -12 -5 -24
-1 -37 10 -13 11 -20 14 -20 6 0 -7 -4 -9 -10 -6 -17 11 -11 29 21 63 37 39
47 40 82 3z m1654 -4 l33 -34 -25 -21 c-14 -12 -33 -22 -42 -22 -27 0 -83 23
-83 35 0 14 59 75 73 75 7 0 27 -15 44 -33z m428 -95 c-7 -7 -55 39 -55 52 0
5 13 -3 30 -19 16 -16 28 -31 25 -33z"/>
<path d="M2328 4179 c-15 -8 -18 -25 -18 -110 l0 -100 38 3 37 3 3 91 c2 74 0
95 -13 108 -19 19 -24 19 -47 5z"/>
<path d="M2612 4178 c-8 -8 -12 -47 -12 -111 l0 -98 38 3 37 3 0 98 c0 76 -3
100 -15 107 -20 13 -34 12 -48 -2z"/>
<path d="M1978 2093 c7 -3 16 -2 19 1 4 3 -2 6 -13 5 -11 0 -14 -3 -6 -6z"/>
<path d="M3899 1503 c-13 -16 -12 -17 4 -4 16 13 21 21 13 21 -2 0 -10 -8 -17
-17z"/>
</g>
</svg>
