<?xml version="1.0" standalone="no"?>
<!DOCTYPE svg PUBLIC "-//W3C//DTD SVG 20010904//EN"
 "http://www.w3.org/TR/2001/REC-SVG-20010904/DTD/svg10.dtd">
<svg version="1.0" xmlns="http://www.w3.org/2000/svg"
 width="1280.000000pt" height="1280.000000pt" viewBox="0 0 1280.000000 1280.000000"
 preserveAspectRatio="xMidYMid meet">

<g transform="translate(0.000000,1280.000000) scale(0.100000,-0.100000)"
fill="#000000" stroke="none">
<path d="M4580 10444 c-234 -15 -400 -43 -656 -109 -506 -131 -969 -365 -1391
-702 -240 -192 -500 -465 -690 -723 -61 -84 -109 -154 -239 -356 -201 -310
-476 -971 -550 -1320 -15 -71 -32 -134 -38 -140 -6 -6 -40 -21 -76 -34 -36
-12 -110 -44 -165 -70 -579 -278 -757 -781 -397 -1122 84 -80 201 -154 318
-200 l40 -16 -12 -91 c-26 -190 -33 -477 -36 -1381 -3 -1027 -5 -983 59 -1205
139 -484 424 -780 828 -860 106 -21 293 -16 387 10 455 125 766 530 843 1099
11 81 18 283 25 746 10 692 12 727 42 845 58 230 184 364 393 419 163 43 288
44 1122 5 448 -22 678 13 933 141 228 115 394 309 461 542 26 93 36 274 20
360 -21 105 -70 223 -131 315 -162 247 -411 410 -762 498 -182 47 -325 62
-988 105 -403 26 -594 41 -599 46 -18 18 111 292 199 424 74 111 229 270 347
357 234 173 492 276 799 319 102 14 173 15 499 9 l380 -7 125 26 c69 15 133
29 143 32 9 3 17 0 17 -6 0 -24 80 -182 133 -262 29 -46 89 -128 133 -183 426
-532 1318 -1650 1347 -1689 20 -27 37 -56 37 -65 0 -9 -101 -142 -224 -296
-486 -607 -831 -1033 -966 -1194 -31 -36 -159 -194 -285 -351 -126 -157 -294
-364 -374 -460 -361 -434 -413 -516 -455 -722 -32 -157 -11 -357 53 -491 59
-124 189 -271 321 -364 74 -52 214 -121 309 -152 257 -84 561 -80 841 10 115
37 320 144 420 220 184 138 264 223 563 594 111 138 257 318 325 400 525 636
756 920 787 968 9 15 22 27 29 27 6 0 29 -26 51 -57 22 -31 81 -106 131 -167
49 -61 220 -273 378 -471 927 -1160 973 -1211 1211 -1373 297 -201 681 -304
968 -261 259 39 456 136 614 303 176 186 255 385 256 646 2 248 -52 378 -263
636 -74 92 -247 304 -383 473 -401 495 -437 538 -542 665 -55 67 -147 180
-205 251 -57 72 -123 152 -147 179 -24 27 -42 51 -39 53 2 2 50 11 107 19 135
19 302 59 416 100 120 44 337 152 442 222 219 145 382 372 453 630 18 64 21
105 22 247 0 157 -2 177 -28 259 -72 235 -192 409 -377 547 -127 94 -370 191
-567 225 -56 10 -101 21 -100 25 2 4 62 72 134 151 259 283 480 541 582 681
259 354 372 651 375 992 2 175 -15 275 -68 398 -117 273 -310 433 -623 514
-88 22 -110 24 -242 20 -237 -8 -415 -54 -645 -167 -294 -144 -504 -331 -855
-759 -96 -117 -246 -299 -333 -405 -87 -105 -200 -243 -252 -306 -184 -226
-319 -387 -408 -489 l-91 -105 -27 35 c-238 296 -409 511 -538 674 -87 111
-243 304 -345 430 -103 127 -230 282 -282 346 -227 280 -430 442 -692 553
-174 73 -298 99 -472 99 -174 0 -265 -17 -387 -73 l-84 -39 -154 83 c-250 135
-466 212 -700 252 -87 15 -417 26 -535 18z m396 -275 c126 -12 225 -35 362
-85 101 -36 235 -95 229 -100 -2 -2 -25 3 -52 11 -48 15 -264 45 -315 45 -27
-1 -27 0 29 -40 11 -8 20 -21 18 -29 -1 -9 3 -16 10 -16 6 0 15 -4 20 -9 5 -5
3 -6 -5 -2 -9 6 -12 2 -10 -10 2 -11 -4 -20 -14 -22 -12 -2 -18 3 -19 15 -1
16 -2 17 -6 1 -2 -10 -9 -18 -15 -18 -5 0 -8 -7 -4 -15 3 -8 1 -15 -5 -15 -6
0 -7 -5 -4 -10 4 -6 12 -7 18 -3 7 3 3 -3 -7 -15 -11 -12 -14 -22 -8 -22 7 0
12 -4 12 -10 0 -5 -9 -10 -20 -10 -11 0 -20 6 -20 13 0 8 -4 7 -10 -3 -5 -8
-7 -23 -4 -33 3 -10 2 -17 -3 -16 -19 3 -34 -2 -29 -10 7 -10 -27 -51 -43 -51
-6 0 -11 -9 -11 -20 0 -11 -4 -20 -10 -20 -5 0 -12 -11 -16 -25 -4 -16 -13
-25 -25 -25 -10 0 -18 -3 -18 -7 5 -28 -3 -43 -22 -43 -16 0 -19 -4 -14 -20 4
-14 2 -20 -8 -20 -10 0 -13 -8 -9 -25 2 -15 0 -25 -7 -25 -6 0 -11 10 -11 21
0 18 -3 19 -14 9 -8 -6 -13 -17 -10 -23 3 -8 -11 -12 -43 -12 -40 0 -48 -3
-45 -17 2 -12 -4 -18 -16 -18 -15 0 -18 -5 -14 -26 4 -21 1 -25 -15 -22 -10 1
-32 -7 -47 -20 -16 -12 -23 -22 -15 -23 8 0 5 -4 -6 -8 -16 -7 -23 -3 -35 18
l-15 26 -3 -27 c-2 -20 -9 -28 -23 -28 -24 0 -53 -26 -44 -40 3 -6 -1 -7 -9
-4 -12 4 -16 0 -16 -17 0 -12 -3 -19 -7 -16 -8 9 -34 -13 -28 -23 3 -5 1 -12
-5 -15 -6 -4 -9 -2 -8 3 7 25 -19 11 -31 -16 -14 -31 -43 -49 -70 -43 -7 1
-25 -1 -40 -4 -24 -7 -25 -8 -6 -16 14 -6 6 -7 -22 -3 -39 5 -42 4 -38 -15 3
-16 -3 -23 -21 -27 -14 -4 -23 -9 -20 -11 6 -6 -12 -25 -39 -41 -17 -10 -18
-11 -3 -12 11 0 15 -5 12 -14 -3 -7 -11 -13 -17 -13 -51 1 -76 -4 -71 -16 4
-10 -3 -12 -26 -9 -24 3 -30 1 -30 -14 0 -11 4 -15 8 -9 10 13 32 17 32 6 0
-6 -5 -13 -10 -16 -6 -4 -8 -10 -5 -15 3 -4 -3 -6 -14 -3 -10 3 -22 0 -25 -6
-4 -6 -1 -11 6 -11 9 0 9 -3 -2 -10 -8 -5 -11 -10 -7 -10 5 0 5 -4 2 -10 -3
-5 -17 2 -31 18 -13 15 -23 21 -22 13 2 -8 -6 -17 -16 -19 -22 -5 -53 -32 -37
-32 5 0 13 5 16 10 3 6 12 10 18 9 9 0 8 -2 -1 -6 -6 -2 -10 -9 -6 -14 4 -8
-8 -13 -27 -11 -4 1 -9 -10 -11 -23 -4 -21 -2 -23 13 -15 22 12 29 12 29 1 0
-5 -12 -12 -27 -16 -21 -5 -24 -8 -12 -16 7 -5 9 -9 3 -9 -5 0 -15 5 -21 11
-7 7 -12 2 -15 -20 -3 -17 -1 -31 4 -31 5 0 6 -5 3 -10 -4 -6 -3 -10 2 -9 4 1
15 1 23 0 31 -3 -69 -65 -140 -86 -44 -13 -313 -176 -380 -230 -34 -27 -237
-230 -283 -283 -20 -23 -37 -47 -37 -52 0 -6 -4 -10 -10 -10 -5 0 -10 -6 -10
-14 0 -8 -7 -17 -16 -20 -9 -4 -15 -9 -12 -12 7 -6 -52 -70 -62 -67 -4 1 -7
-4 -7 -12 0 -7 -15 -36 -33 -65 -28 -43 -35 -49 -43 -35 -5 9 -6 19 -3 22 3 4
6 1 6 -6 0 -7 4 -10 9 -6 6 3 5 21 -4 44 -7 22 -11 42 -8 45 4 3 1 6 -5 6 -6
0 -12 -12 -14 -27 -2 -24 -7 -28 -30 -26 -19 1 -28 -3 -28 -13 0 -11 -9 -15
-27 -14 -16 1 -31 2 -35 1 -5 -1 -11 -1 -15 -2 -33 -4 -50 -35 -30 -55 11 -12
-3 -23 -20 -17 -10 4 -14 2 -10 -4 12 -19 -4 -43 -28 -43 -13 0 -26 -8 -30
-17 -6 -16 -8 -16 -26 6 -16 20 -20 21 -25 7 -4 -9 -4 -20 0 -23 9 -10 -15
-33 -34 -33 -9 0 -29 -18 -44 -40 -21 -32 -32 -40 -56 -40 -17 0 -30 -5 -30
-12 0 -6 -6 -3 -14 8 -14 18 -15 18 -21 2 -4 -10 -18 -18 -31 -18 -17 0 -24
-6 -24 -19 0 -11 -9 -21 -22 -25 -18 -5 -20 -8 -9 -15 8 -5 9 -11 3 -15 -6 -4
-15 0 -19 9 -7 13 -15 9 -43 -20 -19 -19 -40 -35 -47 -35 -7 0 -13 -7 -13 -16
0 -8 -5 -12 -11 -9 -5 4 -19 -1 -29 -10 -10 -9 -24 -14 -29 -10 -6 3 -11 1
-11 -6 0 -7 10 -9 25 -7 13 3 22 1 19 -4 -3 -5 -20 -7 -37 -5 -21 3 -42 -3
-61 -17 -21 -14 -31 -16 -34 -8 -6 19 -26 14 -37 -10 -6 -13 -16 -22 -24 -20
-7 1 -25 -7 -41 -18 -15 -11 -37 -20 -48 -20 -12 0 -24 -5 -28 -11 -5 -8 -9
-8 -14 1 -5 8 -17 1 -38 -20 -20 -20 -36 -28 -44 -23 -7 4 -21 6 -30 5 -10 -2
-18 3 -18 10 0 10 -2 10 -9 -1 -5 -8 -23 -14 -40 -13 -21 0 -31 -4 -31 -14 0
-8 -4 -14 -10 -14 -5 0 -11 -8 -11 -17 -1 -16 -2 -15 -6 1 -4 15 -7 16 -14 5
-6 -10 -9 -6 -9 13 0 32 -25 29 -36 -4 -3 -11 -14 -28 -23 -37 -16 -16 -19
-17 -28 -2 -9 12 -14 13 -23 4 -7 -6 -18 -9 -24 -7 -13 5 -22 -18 -61 -153
-13 -46 -20 -85 -17 -87 8 -4 4 -5 147 22 347 66 482 77 925 76 297 -1 423 -6
605 -22 212 -20 593 -49 1140 -87 242 -17 430 -38 545 -61 94 -19 257 -69 290
-90 l25 -15 -25 5 c-229 47 -560 72 -958 74 -143 1 -221 -2 -217 -9 4 -5 11
-6 17 -3 6 4 9 1 6 -7 -3 -8 -13 -14 -24 -15 -10 -1 -30 -6 -44 -11 -16 -7
-27 -7 -31 -1 -4 6 -13 1 -20 -9 -8 -11 -24 -25 -36 -32 -19 -10 -23 -9 -23 3
0 10 -6 13 -15 10 -11 -5 -12 -11 -5 -24 8 -15 6 -20 -10 -25 -11 -3 -20 -11
-20 -16 0 -11 -46 -12 -53 -1 -2 4 -2 1 -1 -5 2 -7 -5 -13 -16 -13 -11 0 -20
-7 -20 -15 0 -13 -7 -15 -35 -9 -34 6 -49 -7 -22 -20 6 -4 -3 -4 -20 -1 -18 2
-33 1 -33 -4 0 -5 -19 -7 -43 -6 -36 3 -45 0 -53 -18 -5 -14 -18 -22 -31 -21
-12 0 -20 -2 -18 -6 2 -3 -5 -12 -15 -20 -10 -8 -17 -17 -14 -22 3 -4 -2 -8
-10 -8 -11 0 -16 10 -17 28 -1 22 -2 24 -7 7 -5 -15 -16 -20 -39 -20 -18 0
-33 -3 -33 -7 0 -5 -6 -7 -12 -5 -7 1 -14 -9 -16 -23 -2 -14 -13 -35 -24 -47
-11 -12 -17 -26 -13 -32 3 -6 1 -11 -4 -11 -6 0 -11 6 -11 13 0 8 -4 7 -10 -3
-8 -12 -10 -11 -10 7 0 12 -4 25 -10 28 -5 3 -10 1 -10 -4 0 -6 -11 -11 -25
-11 -14 0 -25 -4 -25 -8 0 -5 -11 -15 -25 -22 -14 -8 -23 -20 -21 -27 8 -19
-15 -16 -30 5 -11 14 -12 12 -2 -14 7 -18 8 -39 3 -50 -8 -18 -9 -18 -12 1 -3
17 -43 45 -63 45 -4 0 -5 -13 -2 -30 2 -16 8 -30 13 -30 5 0 9 -7 9 -15 0 -8
-7 -15 -15 -15 -8 0 -15 7 -15 15 0 20 -10 19 -25 -2 -11 -15 -13 -15 -19 5
-8 23 -22 27 -45 13 -8 -6 -11 -16 -6 -31 5 -15 4 -20 -4 -16 -6 4 -41 9 -78
12 -122 8 -176 14 -288 29 -560 75 -1287 16 -1759 -145 -50 -16 -93 -30 -97
-30 -9 0 -35 66 -43 113 -10 56 16 132 72 213 120 170 320 297 629 399 62 20
113 40 113 43 0 25 43 248 64 335 55 230 188 589 315 853 283 586 717 1112
1206 1460 164 116 300 196 500 294 502 246 1137 376 1611 329z m6598 -159 c43
-11 105 -34 139 -52 85 -44 192 -154 238 -243 53 -103 89 -228 69 -240 -6 -4
-8 -10 -5 -15 3 -4 -2 -11 -11 -14 -10 -4 -13 -2 -8 7 4 6 -4 2 -18 -10 -13
-13 -30 -23 -36 -23 -7 0 -12 -7 -12 -15 0 -8 -9 -15 -20 -15 -11 0 -20 -4
-20 -10 0 -5 -9 -10 -20 -10 -11 0 -20 -6 -20 -12 0 -9 -4 -8 -10 2 -8 13 -10
12 -10 -3 0 -10 -8 -20 -17 -24 -10 -3 -25 -13 -35 -22 -9 -9 -28 -25 -42 -36
-14 -11 -38 -31 -54 -45 -98 -86 -108 -92 -142 -70 -13 9 -13 10 0 11 8 1 -5
5 -29 10 -40 8 -48 6 -77 -16 -18 -14 -40 -25 -48 -25 -9 0 -15 -6 -13 -12 1
-7 -5 -13 -14 -13 -24 0 -49 -24 -42 -41 3 -8 0 -14 -7 -14 -6 0 -8 5 -5 10 3
6 1 10 -4 10 -6 0 -11 -7 -11 -15 0 -10 -10 -15 -31 -15 -17 0 -28 -4 -24 -10
3 -6 -4 -10 -17 -10 -13 0 -31 -9 -41 -20 -14 -16 -21 -18 -36 -10 -28 15 -34
13 -28 -10 7 -26 -9 -35 -22 -13 -11 19 -11 18 -15 -27 -1 -8 -7 -14 -14 -13
-7 2 -12 -2 -12 -7 0 -5 -6 -10 -14 -10 -8 0 -22 -7 -30 -16 -9 -8 -16 -12
-16 -8 0 4 -13 -7 -30 -24 -18 -19 -36 -29 -45 -26 -8 4 -15 1 -15 -6 0 -6 -4
-8 -10 -5 -5 3 -10 -1 -10 -9 0 -10 -9 -16 -25 -16 -14 0 -25 -6 -25 -12 0 -9
-4 -8 -10 2 -8 13 -10 12 -10 -2 0 -17 -6 -19 -50 -23 -24 -1 -61 -31 -52 -41
4 -4 0 -4 -8 2 -11 8 -19 6 -32 -7 -9 -9 -13 -21 -10 -25 4 -5 -1 -2 -10 5
-12 9 -18 10 -18 2 0 -6 -7 -11 -16 -11 -11 0 -14 -5 -9 -17 5 -15 4 -16 -6
-5 -18 17 -26 15 -34 -10 -4 -14 -8 -18 -12 -11 -3 8 -15 11 -31 7 -45 -10
-82 -26 -77 -34 3 -4 -1 -8 -8 -7 -38 1 -57 -5 -57 -18 0 -8 -9 -15 -19 -15
-11 0 -26 -7 -34 -15 -8 -8 -17 -12 -20 -9 -2 3 -7 -2 -10 -11 -4 -8 -2 -15 3
-15 6 0 10 -4 10 -10 0 -5 -7 -10 -15 -10 -8 0 -15 9 -15 20 0 28 -24 25 -40
-4 -7 -14 -18 -22 -25 -19 -8 2 -23 -5 -35 -17 -12 -12 -25 -18 -29 -14 -3 5
-12 10 -20 12 -11 2 -12 0 -2 -11 9 -12 8 -16 -4 -21 -8 -3 -21 -3 -28 0 -7 2
-24 -7 -37 -20 -21 -24 -24 -24 -36 -8 -13 16 -13 16 -14 0 0 -23 -33 -39 -81
-40 -30 0 -39 -4 -39 -17 0 -18 -18 -41 -33 -41 -5 0 -4 7 3 15 15 18 9 28
-13 19 -9 -3 -13 -12 -10 -20 3 -8 -1 -14 -10 -14 -8 0 -17 9 -20 19 -3 15
-11 18 -27 14 -12 -3 -24 -12 -27 -19 -3 -8 -10 -11 -15 -8 -6 4 -5 10 3 15 7
4 10 12 5 16 -4 4 -13 0 -20 -9 -7 -10 -16 -15 -20 -11 -4 4 -4 -1 0 -11 6
-15 3 -17 -14 -12 -17 6 -40 -17 -144 -136 -67 -79 -217 -251 -333 -384 -115
-132 -231 -265 -256 -294 l-45 -54 -53 77 c-28 42 -53 77 -56 77 -2 0 -31 -39
-64 -87 -66 -96 -272 -358 -304 -385 -11 -10 -23 -15 -27 -13 -5 3 -10 -1 -13
-7 -3 -10 -7 -10 -20 0 -9 8 -21 11 -27 7 -5 -3 -10 -1 -10 5 0 6 -4 8 -10 5
-5 -3 -10 -2 -10 4 0 5 5 13 10 16 17 11 11 25 -11 25 -11 0 -18 4 -14 9 3 6
0 13 -8 18 -7 4 -20 20 -30 35 -10 16 -23 27 -30 25 -6 -1 -11 4 -10 11 2 6
-3 12 -11 12 -8 0 -17 11 -20 24 -3 15 -16 26 -31 30 -35 9 -83 53 -87 80 -2
13 -10 20 -20 20 -10 -1 -20 7 -23 17 -4 11 -11 19 -16 19 -5 0 -9 6 -9 14 0
7 -7 19 -15 26 -8 7 -12 17 -9 22 9 14 -17 29 -38 22 -14 -4 -18 1 -19 18 -1
13 -1 27 0 31 1 4 -6 10 -16 14 -19 7 -57 43 -46 43 12 0 -40 45 -59 53 -10 3
-18 13 -18 22 0 8 -7 15 -15 15 -13 0 -19 11 -17 31 1 4 -9 18 -21 31 -12 13
-21 31 -19 40 2 8 -4 23 -13 31 -8 9 -15 23 -15 31 0 9 -6 16 -14 16 -8 0 -17
7 -20 16 -3 8 -11 12 -17 8 -7 -4 -9 0 -5 14 4 13 1 22 -9 26 -8 3 -15 15 -15
26 0 11 -5 20 -11 20 -19 0 -69 64 -69 89 0 13 -3 22 -6 18 -8 -7 -34 17 -34
32 0 5 -10 17 -22 25 -12 9 -23 23 -24 32 -5 33 -14 46 -30 40 -8 -3 -13 -2
-10 3 3 5 -3 19 -14 31 -11 13 -20 29 -20 36 0 7 -8 10 -20 7 -14 -4 -20 0
-20 11 0 9 -7 19 -15 22 -8 4 -15 15 -15 26 0 18 -2 19 -17 7 -11 -10 -14 -10
-9 -1 4 6 2 12 -3 12 -6 0 -11 9 -11 21 0 11 -4 17 -10 14 -5 -3 -16 11 -25
30 -8 20 -24 39 -35 42 -15 4 -20 14 -20 40 0 19 -4 32 -8 29 -5 -3 -14 11
-21 30 -7 18 -17 34 -22 34 -5 0 -9 9 -9 20 0 11 -7 20 -15 20 -8 0 -15 4 -15
8 0 5 -9 19 -20 32 -11 12 -17 26 -15 30 3 4 -2 11 -11 14 -8 3 -13 10 -10 15
3 4 -3 16 -14 26 -11 10 -20 24 -20 32 0 7 -11 18 -25 23 -18 7 -24 16 -22 32
1 14 -3 22 -10 21 -7 -2 -12 0 -11 5 4 9 -29 56 -65 93 -15 16 -24 29 -20 29
4 0 0 5 -10 11 -9 6 -16 13 -13 17 2 4 -3 13 -10 20 -13 12 -14 10 -11 -10 2
-13 2 -17 0 -10 -3 6 -9 12 -15 12 -6 0 -8 3 -5 7 4 3 2 12 -4 20 -9 10 -7 13
6 13 13 0 15 3 6 13 -6 8 -10 16 -8 18 1 2 -3 -1 -8 -7 -10 -11 -47 -4 -46 9
3 23 0 39 -5 34 -9 -8 -34 18 -34 35 0 14 -49 62 -74 71 -8 3 -17 19 -21 36
-4 17 -11 34 -17 37 -7 4 -8 2 -4 -4 4 -8 2 -10 -8 -6 -8 3 -12 12 -9 20 3 8
-2 23 -11 33 -9 10 -18 28 -21 39 -5 27 -24 61 -25 45 0 -26 -18 -12 -36 29
-10 23 -30 55 -42 70 -13 15 -20 28 -15 28 4 0 3 4 -2 8 -6 4 -23 25 -40 47
-16 22 -56 68 -88 102 -66 70 -66 71 31 92 125 26 312 4 465 -55 255 -98 431
-240 677 -549 57 -71 136 -168 175 -215 74 -88 345 -425 380 -471 22 -29 553
-690 646 -804 32 -38 81 -98 109 -132 l51 -63 122 153 c68 83 249 303 403 488
153 184 331 398 394 475 435 529 618 744 722 845 284 280 620 436 949 438 75
1 128 -5 183 -19z m-5071 -495 c4 -8 1 -17 -5 -21 -7 -4 -8 -3 -4 4 4 7 2 12
-4 12 -6 0 -8 5 -5 10 8 14 12 13 18 -5z m10 -55 c3 -11 1 -18 -4 -14 -5 3 -9
12 -9 20 0 20 7 17 13 -6z m4947 -308 c0 -4 -9 -8 -20 -9 -11 -1 -18 2 -15 8
7 11 35 12 35 1z m-7108 -54 c-7 -7 -12 -8 -12 -2 0 14 12 26 19 19 2 -3 -1
-11 -7 -17z m-245 -210 c-3 -8 -6 -5 -6 6 -1 11 2 17 5 13 3 -3 4 -12 1 -19z
m6653 -138 c0 -5 -4 -10 -10 -10 -5 0 -10 5 -10 10 0 6 5 10 10 10 6 0 10 -4
10 -10z m-273 -130 c2 -22 -1 -28 -12 -23 -18 6 -18 9 -5 34 14 25 15 24 17
-11z m45 16 c7 4 8 2 4 -4 -11 -18 -26 -14 -25 6 0 10 3 12 6 4 2 -6 10 -9 15
-6z m-6676 -217 c1 -5 2 -14 3 -20 0 -5 6 -7 11 -4 6 3 10 3 10 -2 0 -4 -21
-19 -47 -33 -26 -14 -85 -53 -132 -87 -46 -34 -89 -59 -94 -56 -6 3 -7 1 -3
-5 3 -6 -20 -32 -51 -59 -32 -26 -59 -51 -61 -55 -2 -4 -16 -21 -32 -38 -31
-33 -56 -40 -45 -12 5 14 4 15 -6 5 -9 -9 -10 -16 -2 -24 7 -7 4 -17 -11 -34
-38 -42 -51 -59 -51 -71 0 -6 -13 -22 -27 -36 -15 -14 -25 -28 -22 -31 3 -3
-10 -21 -30 -40 -20 -20 -36 -31 -36 -27 0 5 5 12 10 15 6 3 10 11 10 17 0 7
-6 6 -15 -2 -10 -9 -15 -9 -15 -1 0 10 13 15 32 12 4 0 12 9 19 20 6 12 7 19
2 16 -4 -2 -16 -2 -25 2 -17 6 -16 9 4 51 30 62 104 155 185 231 83 78 160
139 149 119 -4 -8 2 -4 13 10 18 22 26 21 22 -3 -1 -5 3 -6 8 -2 6 3 8 12 4
20 -3 10 1 15 12 15 10 0 13 5 9 12 -4 6 -3 8 2 5 6 -3 30 8 54 24 24 16 50
27 57 24 8 -2 11 0 8 5 -6 9 7 14 21 8 3 -2 10 5 15 15 6 9 17 17 25 17 9 0
12 5 8 13 -4 7 -3 9 2 4 5 -5 10 -13 10 -18z m6094 -34 c0 -2 -10 -10 -22 -16
-21 -11 -22 -11 -9 4 13 16 31 23 31 12z m-255 -65 c3 -6 -1 -7 -9 -4 -18 7
-21 14 -7 14 6 0 13 -4 16 -10z m-6773 -537 c-6 -2 -9 -10 -6 -15 4 -7 2 -8
-5 -4 -13 9 -5 26 12 25 9 0 8 -2 -1 -6z m-295 -108 c-9 -7 -14 -15 -10 -18 3
-4 2 -7 -4 -7 -20 0 -23 14 -7 31 9 10 21 16 27 12 6 -4 4 -11 -6 -18z m8352
-375 c181 -19 504 -98 535 -131 8 -8 5 -10 -10 -5 -177 53 -557 58 -809 11
-146 -28 -250 -57 -271 -76 -11 -10 -26 -19 -32 -19 -7 0 -12 -4 -12 -8 0 -16
-37 -52 -52 -52 -8 0 -23 -9 -33 -20 -10 -11 -22 -17 -28 -13 -5 3 -7 1 -3 -5
7 -12 -49 -72 -69 -72 -7 0 -31 -22 -53 -50 -22 -27 -42 -46 -46 -43 -3 3 -6
1 -6 -7 0 -14 -60 -70 -76 -70 -6 0 -10 -10 -10 -21 1 -15 -9 -27 -31 -38 -18
-9 -33 -22 -33 -29 0 -7 -4 -10 -10 -7 -5 3 -12 -5 -15 -18 -4 -13 -24 -39
-46 -58 -21 -18 -39 -39 -39 -45 0 -7 -11 -15 -24 -18 -18 -4 -22 -11 -19 -28
4 -19 0 -23 -21 -24 -42 -3 -54 -11 -61 -42 -4 -20 -16 -34 -35 -42 -15 -6
-33 -24 -39 -39 -7 -15 -23 -35 -36 -45 -14 -10 -25 -23 -25 -28 0 -13 -59
-89 -120 -157 -14 -16 -24 -34 -22 -41 3 -7 0 -10 -6 -6 -6 3 -14 1 -18 -5 -4
-8 -9 -7 -15 2 -6 10 -9 5 -9 -16 0 -21 -3 -26 -9 -16 -7 11 -10 9 -15 -7 -4
-12 -16 -24 -26 -27 -11 -4 -23 -17 -26 -31 -3 -13 -13 -24 -21 -24 -8 0 -13
-6 -10 -12 6 -18 -31 -48 -50 -41 -11 4 -14 2 -9 -5 4 -6 -4 -18 -18 -27 -14
-9 -28 -24 -31 -33 -2 -10 -18 -26 -35 -37 -16 -11 -30 -26 -30 -32 0 -7 -4
-13 -9 -13 -6 0 -16 -12 -23 -27 -8 -16 -21 -27 -30 -27 -9 1 -15 -5 -13 -15
1 -8 -6 -29 -16 -45 -9 -16 -15 -36 -12 -45 4 -13 3 -14 -5 -2 -9 13 -14 11
-31 -10 -11 -13 -20 -34 -21 -46 0 -22 -32 -48 -43 -37 -3 3 -3 -3 0 -15 4
-15 1 -21 -10 -21 -9 0 -18 -9 -22 -20 -3 -11 -9 -19 -13 -19 -20 3 -32 -2
-27 -11 3 -5 -2 -10 -12 -10 -26 0 -43 -19 -43 -47 0 -21 -10 -28 -32 -24 -5
0 -8 -8 -8 -19 0 -11 -3 -19 -7 -19 -24 4 -33 -4 -33 -28 0 -21 -3 -24 -12
-15 -7 7 -21 12 -31 12 -15 0 -17 -3 -8 -13 8 -11 5 -19 -14 -35 -14 -12 -25
-26 -25 -32 0 -5 -7 -7 -15 -4 -13 6 -20 -6 -16 -28 1 -7 -31 -12 -51 -9 -5 0
-8 -10 -8 -24 0 -14 -5 -25 -11 -25 -5 0 -8 -4 -5 -9 3 -5 -2 -8 -12 -7 -9 0
-17 -6 -17 -14 0 -8 -8 -18 -17 -22 -10 -4 -18 -14 -18 -21 0 -10 -8 -13 -26
-9 -25 4 -26 3 -20 -22 4 -16 2 -26 -4 -26 -6 0 -8 -4 -5 -10 3 -5 3 -10 -2
-10 -17 -1 -44 -29 -48 -49 -5 -24 -63 -84 -75 -76 -4 2 -12 -7 -19 -21 -14
-31 -14 -37 1 -28 7 4 8 3 4 -4 -4 -6 -12 -9 -19 -6 -14 5 -58 -48 -61 -74 -2
-10 -8 -18 -14 -18 -7 -1 -16 -2 -22 -3 -5 0 -10 -6 -10 -12 0 -8 5 -8 15 1
12 10 15 10 15 -2 0 -7 -10 -22 -21 -32 -14 -11 -18 -21 -11 -25 7 -4 5 -13
-5 -26 -11 -14 -14 -15 -10 -4 7 20 -11 39 -29 32 -10 -4 -12 0 -7 13 6 16 5
17 -9 4 -10 -9 -12 -17 -6 -21 14 -9 -9 -22 -26 -16 -7 3 -13 -1 -13 -9 0 -16
37 -9 48 8 4 6 14 8 24 6 16 -3 16 -4 -2 -24 -10 -11 -24 -19 -32 -16 -8 3
-11 0 -7 -7 4 -6 1 -11 -9 -11 -8 0 -18 -7 -21 -15 -5 -13 -9 -13 -23 -3 -14
12 -14 11 -3 -4 15 -19 8 -38 -13 -38 -7 0 -15 -10 -17 -22 -2 -13 -9 -24 -15
-24 -7 -1 -21 -2 -30 -3 -14 -1 -15 -3 -5 -10 10 -6 6 -13 -15 -27 -15 -10
-34 -17 -42 -16 -7 2 -10 -1 -6 -7 3 -6 1 -11 -4 -11 -6 0 -11 4 -11 8 0 5
-13 8 -30 8 -22 0 -27 -3 -19 -12 8 -10 3 -17 -20 -29 -18 -9 -31 -11 -31 -5
0 5 7 10 16 10 8 0 13 4 10 9 -4 5 -17 8 -31 7 -13 -2 -22 0 -20 5 12 19 -16
18 -36 -2 -12 -12 -28 -19 -40 -16 -21 6 -69 -31 -69 -52 0 -9 -5 -9 -22 0
-21 11 -22 11 -9 -4 17 -21 6 -56 -11 -39 -17 17 -28 15 -28 -4 0 -15 -23 -44
-35 -44 -13 0 -60 -42 -60 -53 0 -7 -9 -12 -20 -12 -11 0 -20 -7 -20 -15 0 -8
-8 -18 -19 -23 -11 -4 -16 -13 -12 -22 4 -11 -2 -15 -19 -15 -14 0 -25 -4 -25
-10 0 -5 -4 -10 -10 -10 -5 0 -8 6 -6 13 1 6 1 9 -1 4 -3 -4 -10 -4 -15 -1 -7
4 -8 2 -4 -4 11 -18 -19 -14 -34 3 -10 12 -16 13 -24 5 -8 -8 -7 -13 2 -19 10
-6 7 -12 -12 -24 -14 -10 -28 -17 -31 -17 -11 0 -34 -27 -29 -33 3 -3 0 -8 -7
-13 -7 -4 -10 -3 -5 4 3 6 2 13 -3 17 -12 7 -30 -25 -24 -42 2 -6 -5 -14 -17
-18 -11 -3 -18 -11 -15 -16 4 -5 1 -9 -5 -9 -6 0 -9 -4 -6 -9 7 -11 -13 -9
-33 3 -9 6 -17 3 -23 -8 -5 -9 -13 -14 -17 -12 -4 3 -15 -8 -25 -25 -10 -17
-26 -29 -38 -29 -11 0 -35 -15 -52 -34 -40 -42 -71 -59 -96 -51 -13 4 -20 0
-25 -14 -3 -11 -15 -23 -26 -26 -10 -4 -32 -18 -49 -31 -16 -14 -34 -23 -39
-20 -5 3 -19 -10 -32 -29 -13 -19 -30 -35 -38 -35 -8 0 -36 -10 -62 -22 -41
-20 -47 -26 -42 -47 5 -22 3 -23 -20 -17 -14 3 -29 1 -32 -4 -5 -8 -11 -8 -20
0 -10 9 -16 6 -25 -9 -6 -12 -8 -21 -4 -21 4 0 -5 -11 -21 -26 -20 -19 -34
-24 -54 -19 -21 4 -30 0 -46 -24 -10 -16 -22 -29 -25 -28 -3 1 -18 -11 -34
-26 -16 -15 -34 -26 -40 -24 -18 6 -32 -16 -28 -44 5 -35 -34 -79 -73 -82 -15
-1 -32 -10 -36 -20 -5 -9 -13 -25 -18 -34 -4 -10 -22 -19 -40 -21 -17 -2 -31
-8 -31 -13 0 -6 -8 -9 -17 -8 -10 1 -21 1 -25 0 -5 0 -11 -1 -15 -2 -5 -1 -16
-5 -25 -10 -13 -7 -18 -6 -18 3 0 10 -2 10 -9 0 -9 -15 -42 -13 -53 3 -5 6 -8
5 -8 -4 0 -10 -3 -11 -14 -2 -10 9 -16 8 -26 -4 -7 -8 -9 -15 -4 -15 5 0 10
-12 11 -28 1 -29 -21 -62 -44 -62 -7 0 -12 -3 -12 -7 3 -20 -2 -34 -11 -28 -5
3 -10 1 -10 -4 0 -6 -7 -11 -15 -11 -7 0 -19 -8 -24 -17 -9 -16 -12 -16 -21
-3 -8 12 -10 10 -10 -10 0 -20 -2 -22 -11 -10 -9 12 -10 10 -6 -8 4 -18 1 -22
-11 -20 -10 2 -25 29 -39 68 -21 56 -23 79 -20 170 6 162 50 247 253 495 216
263 508 622 740 910 138 171 378 468 535 661 156 192 357 440 445 550 282 348
401 477 579 632 374 325 889 626 1363 797 283 102 634 179 972 214 120 12 537
13 649 1z m-9413 -129 c-8 -12 -46 -21 -46 -11 0 5 8 11 18 13 29 8 33 7 28
-2z m1642 -674 c2 -9 -2 -17 -8 -17 -6 0 -8 5 -5 10 3 6 1 10 -4 10 -6 0 -11
5 -11 11 0 17 25 4 28 -14z m-28 -17 c0 -5 -4 -10 -10 -10 -5 0 -10 5 -10 10
0 6 5 10 10 10 6 0 10 -4 10 -10z m-133 -66 c-3 -3 -12 -4 -19 -1 -8 3 -5 6 6
6 11 1 17 -2 13 -5z m-277 -134 c0 -5 -2 -10 -4 -10 -3 0 -8 5 -11 10 -3 6 -1
10 4 10 6 0 11 -4 11 -10z m-733 -167 c-3 -5 11 -8 31 -7 48 1 56 -4 40 -24
-10 -12 -10 -16 0 -19 6 -3 12 -9 12 -14 0 -5 -14 -2 -30 6 -31 16 -56 12 -44
-7 4 -6 10 -5 15 3 7 11 9 10 9 -4 0 -10 5 -15 10 -12 6 3 10 1 10 -4 0 -6 -4
-11 -10 -11 -5 0 -11 -10 -11 -22 -1 -17 -2 -19 -6 -5 -2 9 -12 17 -21 16 -11
0 -12 -2 -4 -6 6 -2 12 -9 12 -14 0 -6 -4 -7 -10 -4 -5 3 -10 -2 -10 -12 0
-14 -2 -15 -9 -4 -12 19 -41 6 -41 -18 0 -15 -5 -19 -17 -14 -11 4 -14 3 -9
-5 4 -7 1 -12 -7 -12 -8 0 -22 -9 -33 -21 -11 -12 -27 -19 -39 -17 -18 4 -20
0 -17 -22 5 -33 -22 -48 -38 -22 -9 16 -11 15 -27 -5 -10 -11 -27 -23 -38 -25
-23 -4 -34 -38 -12 -38 7 0 14 -7 14 -15 0 -8 -6 -15 -14 -15 -7 0 -13 7 -13
15 0 8 -4 15 -10 15 -5 0 -10 7 -10 15 0 9 -9 15 -24 15 -13 0 -26 -7 -30 -15
-3 -8 -1 -15 4 -15 6 0 10 4 10 10 0 5 7 7 16 3 12 -4 13 -8 3 -13 -7 -5 -13
-19 -14 -31 -2 -24 -46 -57 -78 -58 -23 -1 -34 -30 -16 -43 12 -8 11 -9 -1 -5
-21 6 -52 -12 -44 -26 5 -9 4 -9 -6 0 -10 9 -17 10 -27 1 -10 -8 -20 -8 -37 0
-19 8 -27 6 -50 -14 -14 -14 -26 -29 -26 -35 0 -6 -7 -3 -16 5 -14 15 -18 13
-46 -21 -17 -21 -28 -30 -25 -21 4 12 2 15 -8 11 -8 -3 -13 -9 -10 -13 3 -5
-4 -6 -15 -3 -11 3 -20 10 -20 15 0 6 -7 8 -15 4 -8 -3 -15 0 -16 7 -2 26 -18
-62 -24 -132 -6 -84 -14 -121 -28 -138 -12 -17 -26 -8 -22 15 1 9 -6 31 -16
48 -10 17 -16 34 -12 38 4 4 0 4 -9 1 -21 -8 -41 -85 -53 -210 -22 -225 -31
-559 -41 -1500 -4 -324 -8 -591 -9 -593 -10 -11 -27 117 -37 268 -9 131 -9
410 0 1115 12 983 13 1014 62 1281 42 230 61 308 82 327 25 21 74 22 82 2 7
-18 60 -20 137 -4 142 28 396 55 547 57 90 1 161 -1 159 -5z m8763 -1216 c111
-138 257 -319 324 -402 144 -176 287 -353 479 -593 150 -188 288 -356 410
-501 42 -50 88 -113 101 -139 25 -51 44 -114 28 -97 -65 70 -157 177 -255 300
-67 83 -153 188 -191 235 -39 47 -117 146 -174 220 -120 158 -278 362 -396
510 -136 171 -554 736 -537 725 6 -3 101 -119 211 -258z m-3493 -893 c-3 -3
-12 -4 -19 -1 -8 3 -5 6 6 6 11 1 17 -2 13 -5z m-1582 -1004 c-3 -5 -12 -7
-20 -3 -21 7 -19 13 6 13 11 0 18 -4 14 -10z"/>
<path d="M5185 9930 c-3 -5 -1 -10 4 -10 6 0 11 5 11 10 0 6 -2 10 -4 10 -3 0
-8 -4 -11 -10z"/>
<path d="M4720 9400 c0 -5 5 -10 11 -10 5 0 7 5 4 10 -3 6 -8 10 -11 10 -2 0
-4 -4 -4 -10z"/>
<path d="M2965 7911 c-3 -5 -1 -12 5 -16 5 -3 10 1 10 9 0 18 -6 21 -15 7z"/>
<path d="M3710 6781 c0 -18 18 -21 30 -6 10 13 9 15 -9 15 -11 0 -21 -4 -21
-9z"/>
<path d="M3005 6460 c-3 -5 -2 -10 4 -10 5 0 13 5 16 10 3 6 2 10 -4 10 -5 0
-13 -4 -16 -10z"/>
<path d="M3340 7979 c-13 -7 -13 -9 0 -9 13 0 13 -2 0 -9 -8 -6 -17 -8 -20 -6
-4 2 -7 -2 -7 -10 0 -16 26 -6 46 19 14 17 1 28 -19 15z"/>
<path d="M3274 7905 c-4 -8 -11 -12 -18 -8 -6 3 -7 2 -3 -2 14 -16 36 -14 30
3 -5 11 -3 13 7 7 9 -5 11 -4 6 3 -10 16 -15 15 -22 -3z"/>
<path d="M8083 4611 c0 -11 5 -17 9 -15 11 7 10 34 -1 34 -6 0 -9 -9 -8 -19z"/>
<path d="M7623 4323 c0 -7 4 -13 8 -13 4 0 9 6 12 13 3 8 0 14 -7 14 -7 0 -13
-6 -13 -14z"/>
<path d="M1520 5650 c0 -5 5 -10 11 -10 5 0 7 5 4 10 -3 6 -8 10 -11 10 -2 0
-4 -4 -4 -10z"/>
</g>
</svg>
